<?xml version="1.0" encoding="iso-8859-1"?>
<!-- Generator: Adobe Illustrator 19.0.0, SVG Export Plug-In . SVG Version: 6.00 Build 0)  -->
<svg version="1.1" id="Layer_1" xmlns="http://www.w3.org/2000/svg" xmlns:xlink="http://www.w3.org/1999/xlink" x="0px" y="0px"
	 viewBox="0 0 512 512" style="enable-background:new 0 0 512 512;" xml:space="preserve" fill="#6ee7b7">
<g>
	<g>
		<path d="M510.237,487.838L270.933,9.229c-3.301-6.606-10.633-10.37-18.151-8.92c-5.188,1.001-9.528,4.548-11.891,9.274
			L1.904,487.553c-1.969,3.937-2.485,8.504-1.161,12.701C3.001,507.408,9.532,512,16.696,512h222.609v-66.783h-42.369
			c-5.779,0-9.537-6.081-6.953-11.25l27.76-55.533h-20.807c-5.779,0-9.537-6.081-6.953-11.25l59.065-118.156
			c2.865-5.73,11.042-5.73,13.906,0l59.065,118.156c2.583,5.169-1.174,11.25-6.953,11.25h-20.808l27.762,55.533
			c2.583,5.169-1.174,11.25-6.953,11.25h-42.369V512h222.22c4.449,0,8.821-1.585,12.003-4.693
			C512.263,502.088,513.43,494.224,510.237,487.838z M307.268,164.427l-17.877,17.875l-21.586-21.586
			c-6.519-6.52-17.091-6.52-23.611,0l-21.585,21.586l-17.875-17.875c-0.869-0.869-1.813-1.614-2.807-2.251L256,54.028
			l54.074,108.148C309.081,162.814,308.136,163.557,307.268,164.427z"/>
	</g>
</g>
<g>
	<g>
		<circle cx="428.522" cy="16.696" r="16.696"/>
	</g>
</g>
<g>
	<g>
		<circle cx="361.739" cy="83.478" r="16.696"/>
	</g>
</g>
<g>
	<g>
		<circle cx="428.522" cy="16.696" r="16.696"/>
	</g>
</g>
<g>
	<g>
		<circle cx="361.739" cy="83.478" r="16.696"/>
	</g>
</g>
<g>
	<g>
		<circle cx="428.522" cy="150.261" r="16.696"/>
	</g>
</g>
<g>
	<g>
		<circle cx="495.304" cy="217.043" r="16.696"/>
	</g>
</g>
<g>
	<g>
		<circle cx="495.304" cy="83.478" r="16.696"/>
	</g>
</g>
<g>
	<g>
		<circle cx="83.478" cy="16.696" r="16.696"/>
	</g>
</g>
<g>
	<g>
		<circle cx="16.696" cy="83.478" r="16.696"/>
	</g>
</g>
<g>
	<g>
		<circle cx="83.478" cy="16.696" r="16.696"/>
	</g>
</g>
<g>
	<g>
		<circle cx="16.696" cy="83.478" r="16.696"/>
	</g>
</g>
<g>
	<g>
		<circle cx="83.478" cy="150.261" r="16.696"/>
	</g>
</g>
<g>
	<g>
		<circle cx="16.696" cy="217.043" r="16.696"/>
	</g>
</g>
<g>
	<g>
		<circle cx="150.261" cy="83.478" r="16.696"/>
	</g>
</g>
<g>
</g>
<g>
</g>
<g>
</g>
<g>
</g>
<g>
</g>
<g>
</g>
<g>
</g>
<g>
</g>
<g>
</g>
<g>
</g>
<g>
</g>
<g>
</g>
<g>
</g>
<g>
</g>
<g>
</g>
</svg>
